<svg width="64" height="64" viewBox="0 0 64 64" fill="none" xmlns="http://www.w3.org/2000/svg">
  <rect width="64" height="64" rx="12" fill="white"/>
  <path d="M54.162 32.653c0-1.54-.138-3.02-.395-4.44H32v8.397h12.435a10.64 10.64 0 0 1-4.617 6.983v5.793h7.46c4.367-4.02 6.884-9.953 6.884-16.733Z" fill="#4285F4"/>
  <path d="M32 55.2c6.24 0 11.477-2.068 15.302-5.605l-7.46-5.793c-2.068 1.386-4.717 2.21-7.842 2.21-6.03 0-11.135-4.07-12.965-9.54h-7.712v5.975C15.137 50.01 22.942 55.2 32 55.2Z" fill="#34A853"/>
  <path d="M19.035 36.472A13.2 13.2 0 0 1 18.31 32c0-1.55.266-3.056.725-4.472v-5.975h-7.712A23.196 23.196 0 0 0 8.8 32c0 3.75.899 7.3 2.523 10.447l7.712-5.975Z" fill="#FBBC05"/>
  <path d="M32 17.988c3.394 0 6.443 1.168 8.842 3.46l6.63-6.63C43.465 11.08 38.229 8.8 32 8.8c-9.058 0-16.863 5.19-20.677 12.753l7.712 5.975c1.83-5.47 6.935-9.54 12.965-9.54Z" fill="#EA4335"/>
</svg>
